<svg width="143" height="49" viewBox="0 0 143 49" fill="none" xmlns="http://www.w3.org/2000/svg">
<rect y="0.109131" width="131" height="48" rx="24" fill="black"/>
<path fill-rule="evenodd" clip-rule="evenodd" d="M69.668 17.1304C70.5 16.1544 71.06 14.7944 70.908 13.4424C69.708 13.489 68.2587 14.217 67.3973 15.193C66.628 16.057 65.952 17.441 66.1347 18.7664C67.4707 18.8677 68.836 18.1077 69.668 17.1304ZM76.1667 30.0251C76.14 30.1051 75.6507 31.665 74.4667 33.273C73.4427 34.665 72.38 36.0504 70.7067 36.0797C69.0627 36.1064 68.5333 35.173 66.6533 35.173C64.7733 35.173 64.1867 36.0504 62.628 36.1064C61.0147 36.1637 59.7827 34.6037 58.7507 33.217C56.6413 30.381 55.0293 25.2051 57.1947 21.7104C57.7346 20.8463 58.4827 20.1314 59.3704 19.6313C60.2582 19.1312 61.2572 18.8618 62.276 18.8477C63.8627 18.821 65.36 19.841 66.3293 19.841C67.3 19.841 69.1187 18.6144 71.032 18.7944C71.832 18.825 74.0813 19.0944 75.5253 21.0597C75.408 21.1264 72.8427 22.5144 72.8693 25.4037C72.904 28.861 76.1307 30.0104 76.1667 30.0251Z" fill="white"/>
</svg>
