<svg width="131" height="49" viewBox="0 0 131 49" fill="none" xmlns="http://www.w3.org/2000/svg">
<rect y="0.109131" width="131" height="48" rx="24" fill="#FAF6F4"/>
<g clip-path="url(#clip0_19_721)">
<path d="M81.1187 24.4085C81.1187 23.0975 81.0123 22.1408 80.7821 21.1487H65.8115V27.066H74.5989C74.4218 28.5365 73.4651 30.7511 71.339 32.2392L71.3092 32.4374L76.0427 36.1043L76.3706 36.137C79.3824 33.3555 81.1187 29.2629 81.1187 24.4085Z" fill="#4285F4"/>
<path d="M65.8114 39.9992C70.1165 39.9992 73.7307 38.5818 76.3706 36.137L71.339 32.2392C69.9926 33.1782 68.1854 33.8337 65.8114 33.8337C61.5949 33.8337 58.0161 31.0523 56.7404 27.2078L56.5534 27.2236L51.6315 31.0327L51.5672 31.2117C54.1892 36.4203 59.5751 39.9992 65.8114 39.9992Z" fill="#34A853"/>
<path d="M56.7404 27.2079C56.4038 26.2157 56.209 25.1526 56.209 24.0543C56.209 22.9558 56.4038 21.8928 56.7227 20.9007L56.7138 20.6894L51.7302 16.8191L51.5672 16.8966C50.4865 19.0581 49.8664 21.4854 49.8664 24.0543C49.8664 26.6232 50.4865 29.0503 51.5672 31.2118L56.7404 27.2079Z" fill="#FBBC05"/>
<path d="M65.8114 14.2745C68.8055 14.2745 70.8252 15.5678 71.9768 16.6486L76.4768 12.2548C73.7131 9.68592 70.1165 8.10913 65.8114 8.10913C59.5751 8.10913 54.1892 11.6879 51.5672 16.8966L56.7227 20.9006C58.0161 17.0561 61.5949 14.2745 65.8114 14.2745Z" fill="#EB4335"/>
</g>
<defs>
<clipPath id="clip0_19_721">
<rect width="48" height="32" fill="white" transform="translate(41.5 8.10913)"/>
</clipPath>
</defs>
</svg>
