<svg width="143" height="49" viewBox="0 0 143 49" fill="none" xmlns="http://www.w3.org/2000/svg">
<rect y="0.109131" width="131" height="48" rx="24" fill="#2EBD59"/>
<path d="M51.5 24.1091C51.5 16.3758 57.768 10.1091 65.5 10.1091C73.2333 10.1091 79.5 16.3771 79.5 24.1091C79.5 31.8411 73.2333 38.1091 65.5 38.1091C57.7667 38.1091 51.5 31.8398 51.5 24.1091ZM73.6333 26.4878C73.7082 26.3657 73.7583 26.23 73.7807 26.0885C73.8031 25.947 73.7975 25.8025 73.764 25.6632C73.7306 25.5239 73.6701 25.3926 73.5859 25.2767C73.5017 25.1608 73.3955 25.0626 73.2733 24.9878C68.9533 22.3318 62.632 21.5851 57.548 23.1278C57.2876 23.2253 57.0741 23.4183 56.951 23.6676C56.8278 23.9169 56.8043 24.2037 56.8851 24.4697C56.966 24.7358 57.1452 24.961 57.3862 25.0996C57.6273 25.2382 57.9121 25.2797 58.1827 25.2158C62.6333 23.8651 68.3693 24.5358 72.132 26.8491C72.2542 26.9242 72.39 26.9745 72.5316 26.997C72.6732 27.0195 72.8179 27.0139 72.9573 26.9805C73.0968 26.947 73.2283 26.8864 73.3443 26.8021C73.4603 26.7178 73.5585 26.6101 73.6333 26.4878ZM70.72 30.5905C70.9177 30.7112 71.1552 30.7485 71.3804 30.6941C71.4919 30.6672 71.597 30.6186 71.6897 30.551C71.7824 30.4835 71.8609 30.3983 71.9207 30.3005C71.9805 30.2026 72.0204 30.0939 72.0382 29.9806C72.056 29.8673 72.0513 29.7516 72.0243 29.6401C71.9974 29.5286 71.9488 29.4235 71.8812 29.3308C71.8137 29.2381 71.7285 29.1596 71.6307 29.0998C67.9413 26.8451 63.3667 26.3198 58.0333 27.5398C57.9216 27.5653 57.816 27.6125 57.7226 27.6788C57.6291 27.7451 57.5496 27.8291 57.4886 27.9261C57.4277 28.0231 57.3864 28.1312 57.3672 28.2442C57.348 28.3571 57.3512 28.4728 57.3767 28.5845C57.4021 28.6962 57.4494 28.8018 57.5157 28.8952C57.5819 28.9887 57.666 29.0682 57.763 29.1292C57.86 29.1901 57.9681 29.2314 58.081 29.2506C58.194 29.2698 58.3096 29.2666 58.4213 29.2411C63.2947 28.1278 67.4333 28.5825 70.72 30.5905ZM57.516 20.8998C61.824 19.5931 69.268 19.8385 73.7813 22.5185C73.9292 22.6062 74.0929 22.6639 74.2631 22.6884C74.4333 22.7128 74.6066 22.7035 74.7732 22.661C74.9398 22.6185 75.0964 22.5436 75.234 22.4405C75.3716 22.3375 75.4876 22.2083 75.5753 22.0605C75.6631 21.9126 75.7208 21.7489 75.7453 21.5787C75.7697 21.4085 75.7604 21.2352 75.7179 21.0686C75.6754 20.902 75.6004 20.7454 75.4974 20.6078C75.3943 20.4702 75.2652 20.3542 75.1173 20.2665C69.9227 17.1825 61.7 16.8931 56.7573 18.3945C56.4249 18.4952 56.1462 18.7239 55.9824 19.0303C55.8186 19.3366 55.7832 19.6954 55.884 20.0278C55.9848 20.3602 56.2135 20.639 56.5198 20.8027C56.8261 20.9665 57.1849 21.0019 57.5173 20.9011L57.516 20.8998Z" fill="white"/>
</svg>
